# xmcd
#
# Track frame offsets:
#	150
#	12995
#	24021
#	35887
#	47678
#	58057
#	71806
#	84182
#	94729
#	115206
#	127645
#	141995
#
# Disc length: 2035 seconds
# Revision: 3
# Processed by: cddbd v1.5.2PL0 Copyright (c) Steve Scherf et al.
# Submitted via: dBpowerAMP V12.0
#
DISCID=9907f10c
DTITLE=Various Artist - Legends of Country
DYEAR=2001
DGENRE=Country
TTITLE0=Lynn Anderson - Rose Garden
TTITLE1=Karl Denver Trio - Wimoweh/The Lion Sleeps Tonight
TTITLE2=Roy Drusky - Three Hearts In A Tangle
TTITLE3=Barbara Fairchild - You Can't Put the City In A Country Girl
TTITLE4=Waylon Jennings - Sally Was A Good Old Girl
TTITLE5=George Jones - Wedding Bells
TTITLE6=Frankie Laine - High Noon
TTITLE7=Johnny Preston - Cradle of Love
TTITLE8=Nashville Teens - Tobacco Road
TTITLE9=Willie Nelson - Shelter of My Arms
TTITLE10=Ed Bruce - Behind Closed Doors
TTITLE11=Ferlin Husky - Gone
EXTD=
EXTT0=
EXTT1=
EXTT2=
EXTT3=
EXTT4=
EXTT5=
EXTT6=
EXTT7=
EXTT8=
EXTT9=
EXTT10=
EXTT11=
PLAYORDER=
